subject01_walk1_grf.mot 
version=1 
nRows=33 
nColumns=19 
inDegrees=yes 
endheader	
time	ground_force_vx	ground_force_vy	ground_force_vz	ground_force_px	ground_force_py	ground_force_pz	1_ground_force_vx	1_ground_force_vy	1_ground_force_vz	1_ground_force_px	1_ground_force_py	1_ground_force_pz	ground_torque_x	ground_torque_y	ground_torque_z	1_ground_torque_x	1_ground_torque_y	1_ground_torque_z
1.6666655	0.0	0.0	0.0	0.7352780598752232	-0.0075	0.1289758980107827	59.20810102366117	599.666339641241	54.18095280962621	0.5155686345626744	-0.0075	-0.05793990712749082	0.0	-0.0	-0.0	0.00021242099509530819	-0.8659623553889485	-0.004755549358867562
1.68333216	0.0	0.0	0.0	0.7653046656672644	-0.0075	0.13218065283930974	60.07392487135324	620.5276424452492	48.97993440087337	0.4976394583704756	-0.0075	-0.058451807975129354	0.0	-0.0	-0.0	0.0001575706528113469	-1.3699859500096825	-0.005169391011080126
1.69999882	0.0	0.0	0.0	0.7774082091888386	-0.0075	0.1312406599135287	55.7733220548871	643.9948275852873	41.447678149178905	0.4795828970148556	-0.0075	-0.05891337766819464	0.0	-0.0	-0.0	0.0005025768493229181	-2.4454062315923184	-0.005772971334563688
1.71666548	0.0	0.0	0.0	0.7696019389495078	-0.0075	0.12392445174483131	56.37667393784724	669.1026839057264	30.24376000677173	0.4624272075290273	-0.0075	-0.05911261989456268	0.0	-0.0	-0.0	0.0011425614697889253	-3.7837296471999236	-0.00637051506053415
1.73333214	0.0	0.0	0.0	0.7637145762003027	-0.0075	0.11535707476324798	57.737087223620264	695.3698541660021	20.778872169633132	0.4447446320339554	-0.0075	-0.059012975629383006	0.0	-0.0	-0.0	0.001801999660704285	-4.704594757036728	-0.006850092898615014
1.7499988	0.0	0.0	0.0	0.7749962911947423	-0.0075	0.11144608106807141	71.43755023511497	724.6739756302666	17.15795173467596	0.42785292922883905	-0.0075	-0.058927873549295934	0.0	-0.0	-0.0	0.002070274183259319	-4.547080028320478	-0.00673454297532768
1.76666546	0.0	0.0	0.0	0.7954451108557038	-0.0075	0.11096164916447397	85.91377062318371	749.8296099119112	19.222056589464746	0.4118005033273029	-0.0075	-0.059109389748541255	0.0	-0.0	-0.0	0.002045616876445218	-5.504875326668537	-0.0071420526009481145
1.78333212	0.0	0.0	0.0	0.8162828227259639	-0.0075	0.11150187098728269	102.33388295022002	773.8616851594647	27.56734265855218	0.39651181867270696	-0.0075	-0.05944448335987444	0.0	-0.0	-0.0	0.0016921317198667555	-7.3875084355578595	-0.0077951288628819474
1.79999878	0.0	0.0	0.0	0.8329366383604463	-0.0075	0.11154763893554645	122.80782060346199	799.6054466405777	37.8339258200701	0.38250544304802503	-0.0075	-0.05991075191427442	0.0	-0.0	-0.0	0.0011130946305166227	-9.103830130588994	-0.008183068079842263
1.81666544	2.4801357903583994	13.95552628459822	0.7698316505500153	0.8430465912007422	-0.0075	0.11056228965735537	144.03865551696856	810.4940265285886	44.70945355117396	0.3700579273110276	-0.0075	-0.060394771230687455	1.027810490013639e-05	-0.16976077276999618	-0.00013854950724275552	0.0005969207076617671	-9.859183341642087	-0.008046529074483107
1.8333321	8.780933780479648	43.94593459139405	2.7660894880049263	0.8457742463879845	-0.0075	0.10842857280918233	159.8129948047296	799.8160095633717	50.34282868168966	0.3582446441154897	-0.0075	-0.06059395264266328	1.7603289127265296e-05	-0.4837690571174345	-0.00040338372305735097	0.00032037986211622837	-8.804596839537309	-0.007341583759643788
1.84999876	18.84759913988194	87.79075369137497	5.490530686998065	0.8422756960229839	-0.0075	0.10564560669708112	164.37969376428677	765.6687252323717	47.88576763723629	0.3480390665607375	-0.0075	-0.060540894169915094	2.4134887555267972e-05	-0.8022717575639605	-0.0007042984434670584	0.00021049288007062825	-6.9970283666021365	-0.006142552247453205
1.86666542	32.13632831704152	141.49367083411622	8.13284177617178	0.8349139268641047	-0.0075	0.10261907460224233	160.68164158520764	707.4683541705813	40.66420888085891	0.3383005179217129	-0.0075	-0.06015773958931728	3.4693005283243266e-05	-1.0733820391121833	-0.0009247453421854246	0.00017346502641621636	-5.366910195560918	-0.004623726710927124
1.88333208	45.506523320438404	200.35760384603452	9.323597418211607	0.8269325193073616	-0.0075	0.10014889594645683	143.4070437611654	631.3972056337198	29.38193132333712	0.3287369750417347	-0.0075	-0.05941362818647508	3.8973171343576054e-05	-1.5432002409833006	-0.0009616770453858797	0.0001228181561800262	-4.863166164828456	-0.003030582256540367
1.89999874	56.73517772869787	259.88000756114303	7.548125497829933	0.8207728465729184	-0.0075	0.09886339724925	118.96085652791486	544.9096932733643	15.826714753514372	0.3188501107202904	-0.0075	-0.05821549365840683	-3.408978601842872e-06	-2.6223882222455663	-0.0007752078336782829	-7.147858358702796e-06	-5.498555949869735	-0.0016254357802931733
1.9166654	63.57419435599141	317.6040717016071	2.090174583506587	0.8177576732349318	-0.0075	0.09878032776098261	91.42574616909243	456.74490311373984	3.005870115328521	0.30853018194915466	-0.0075	-0.05658096853101202	-0.00011081201881479577	-4.662732174097042	-0.0005399298261560063	-0.00015935823658127778	-6.705452936082414	-0.0007764705119005426
1.93333206	62.301010895727124	375.8781676978499	-7.470806714316868	0.8177934373426683	-0.0075	0.0997643772769923	62.301010895727124	375.8781676978499	-7.470806714316868	0.29787611744761405	-0.0075	-0.054554352850495036	-0.0003120993267507623	-7.292459431761506	-0.0004286484775339649	-0.0003120993267507623	-7.292459431761506	-0.0004286484775339649
1.94999872	54.988812020403586	438.0834666097343	-17.883347054422952	0.8197616401115497	-0.0075	0.10116697292702968	38.237253391671366	304.62757611935166	-12.435440004731193	0.2866915038547835	-0.0075	-0.05243621061028826	-0.0006616630174387982	-9.430148674572369	-0.0005509423016112877	-0.0004600968002057868	-6.557388151192706	-0.00038310557396811393
1.96666538	41.720372314409154	507.00705949421774	-30.680383066477972	0.8206002110950434	-0.0075	0.10255012588332257	19.897408334564375	241.8033668357039	-14.632182693243346	0.2750373841974907	-0.0075	-0.05072534824155543	-0.0012183844112761354	-9.91526245725568	-0.0008285216836490772	-0.0005810756423009263	-4.728817479614249	-0.0003951411106634062
1.98333204	25.126259798528544	581.780758919556	-38.24318041498408	0.8176561686455885	-0.0075	0.10381772969814182	7.973169918915585	184.61310531752653	-12.135486066504397	0.262815187956268	-0.0075	-0.049822854457372605	-0.0019455819444679906	-8.140522128565827	-0.0013819519005119	-0.0006173802053629136	-2.5831845519462777	-0.00043852676088285033
1.9999987	6.328520108271204	656.5659160489649	-42.57081972764184	0.8095361395726108	-0.0075	0.10458269552070204	1.2657040216542415	131.31318320979307	-8.514163945528372	0.25099030476904677	-0.0075	-0.04958801139017707	-0.0026937070653194626	-4.812125584210268	-0.0021482883425183014	-0.0005387414130638928	-0.9624251168420541	-0.00042965766850366053
2.01666536	-14.690010074680774	722.4122857412286	-40.31509577464498	0.7966993018267392	-0.0075	0.10520258418022398	-1.6843407777935895	82.83101679761562	-4.622485582288764	0.24186979766332672	-0.0075	-0.050051079995550085	-0.0032371252782194947	-1.1831885692839368	-0.0031062681938645803	-0.00037116530766232293	-0.13566313058553142	-0.00035616137491335597
2.03333202	-30.037251294319343	768.8409813785067	-35.096271123472896	0.7805885932542029	-0.0075	0.10554568809292339	-1.6503984227647965	42.24400996585196	-1.9283665452457608	0.23876013189587555	-0.0075	-0.0509094110385404	-0.003392871474522341	1.3453841451512045	-0.003942232640943713	-0.00018642150958913934	0.07392220577753861	-0.00021660618906284106
2.04999868	-36.54093262499686	788.914970058693	-29.757334782018187	0.7627714398715048	-0.0075	0.10585111055339061	-0.6291816213575675	13.583966371871657	-0.5123779498890595	0.2447281169181806	-0.0075	-0.051995639932960934	-0.003171200890730497	2.1602779715599865	-0.004479679594476928	-5.460345904569116e-05	0.03719683924540407	-7.713355593139149e-05
2.06666534	-31.598518531814463	780.0076094907205	-25.27156211122708	0.7445770142214305	-0.0075	0.10608056887267969	-0.0	0.0	-0.0	0.2611704516419626	-0.0075	-0.053768689659656636	-0.0026625731427485973	1.6266408479203198	-0.004685656168435877	-0.0	0.0	-0.0
2.083332	-23.45012085402464	746.1770945328026	-23.518832500650667	0.7259746958125914	-0.0075	0.10648740978333382	-0.0	0.0	-0.0	0.2868462132594397	-0.0075	-0.05585846516278852	-0.002087686629722928	0.3066681700075269	-0.004627702256015775	-0.0	0.0	-0.0
2.09999866	-12.328984442389235	705.5405597648615	-21.520550062651132	0.7076063277102582	-0.0075	0.1069589608533321	-0.0	0.0	-0.0	0.3190183589891735	-0.0075	-0.05786104171592541	-0.0015957393166663545	-0.7237612116263706	-0.004489186036074482	-0.0	-0.0	-0.0
2.11666532	0.3663004407012975	662.9085824272121	-20.319837933361313	0.6890711359247781	-0.0075	0.10746789601865901	0.0	0.0	-0.0	0.35483269198623074	-0.0075	-0.059524415351068956	-0.001256562947349554	-1.1509738958904727	-0.004333037324924259	-0.0	-0.0	-0.0
2.13333198	8.990166209656758	622.8798023596935	-19.856623532458798	0.6706468368415899	-0.0075	0.10792731336341663	0.0	0.0	-0.0	0.3925932348207246	-0.0075	-0.060155992929707254	-0.00103904171007665	-0.9414452017594107	-0.004197199635294598	-0.0	-0.0	-0.0
2.14999864	15.574267024536645	589.1348257620726	-20.002765279542405	0.6522724419636158	-0.0075	0.10824919794077381	0.0	0.0	-0.0	0.43189254097693763	-0.0075	-0.06009127709404474	-0.0009197835014098676	-0.1122348887065867	-0.004082822106549762	-0.0	-0.0	-0.0
2.1666653	20.92512280242721	563.9728549487454	-21.10809103030497	0.6343002881817085	-0.0075	0.1085326484410493	0.0	0.0	-0.0	0.4729002361875569	-0.0075	-0.05970431844887072	-0.0008716096688289423	1.0932122286445791	-0.00398856072893539	-0.0	0.0	-0.0
2.18333196	28.87847769433867	548.1930648309495	-23.578590586374336	0.6168341983188745	-0.0075	0.10869114630234822	0.0	0.0	-0.0	0.5158702914126961	-0.0075	-0.05910510320942755	-0.0008387294803555787	2.330312794313402	-0.003923746227538248	-0.0	0.0	-0.0
2.19999862	34.48668216898625	541.9694703811134	-24.020607921651195	0.5991213411600071	-0.0075	0.10874557282390074	0.0	0.0	-0.0	0.5606165036300954	-0.0075	-0.05899538600465187	-0.000817420390560016	3.359394453194226	-0.0038978233448938816	-0.0	0.0	-0.0
